<svg width="320" height="53" viewBox="0 0 320 53" fill="none" xmlns="http://www.w3.org/2000/svg">
<g clip-path="url(#clip0_1891_6751)">
<path d="M84.8966 3.40407H82.0955L62.75 49.604H66.5584L72.4918 35.0629H91.5751L97.5774 49.604H104.256L84.8966 3.40407ZM73.6784 32.0266L81.8885 11.8167L90.2918 32.0266H73.6784Z" fill="#16031B"/>
<path d="M134.019 27.4451V49.6049H128.017V29.0608C128.017 23.8099 125.823 21.0521 121.684 21.0521C116.813 21.0521 113.004 25.7598 113.004 32.4314V49.6049H107.002V17.2775H112.811V24.0048C114.812 19.2971 118.951 16.4557 123.822 16.4557C130.156 16.4557 134.033 20.7039 134.033 27.4312L134.019 27.4451Z" fill="#16031B"/>
<path d="M147.171 17.2784V9.46471H145.101C143.97 13.7685 140.562 17.2088 135.76 18.4206V20.5794H141.169V41.4578C141.169 47.1127 144.563 50.4137 149.434 50.4137C152.967 50.4137 156.044 48.5891 158.514 45.9009L157.175 44.2853C155.367 45.5667 153.836 45.9706 152.111 45.9706C149.503 45.9706 147.171 44.4245 147.171 40.5107V20.5794H162.198V49.6058H168.2V17.2784H147.171Z" fill="#16031B"/>
<path d="M177.624 41.441V20.5626H172.215V18.4037C177.017 17.1919 180.425 13.7517 181.556 9.44786H183.626V17.2616H193.699V20.5626H183.626V40.4939C183.626 44.3938 185.958 45.9537 188.566 45.9537C190.305 45.9537 191.836 45.5498 193.63 44.2684L194.969 45.8841C192.499 48.5722 189.435 50.3968 185.889 50.3968C181.018 50.3968 177.624 47.0958 177.624 41.441Z" fill="#16031B"/>
<path d="M257.241 30.7433H235.426C235.564 41.1895 241.166 45.9669 248.3 45.9669C251.239 45.9669 253.709 44.7551 255.709 43.1395L257.241 44.8248C254.578 48.1258 250.507 50.41 244.767 50.41C236.433 50.41 229.492 44.6158 229.492 32.8326C229.492 23.0689 235.495 16.4669 244.574 16.4669C251.846 16.4669 257.255 21.2443 257.255 29.1277V30.7433H257.241ZM235.564 28.1109H250.714V27.902C250.714 22.9157 248.714 19.2804 243.843 19.2804C238.972 19.2804 236.24 23.25 235.564 28.097V28.1109Z" fill="#16031B"/>
<path d="M260.733 48.3792V43.1283C264.003 45.6214 267.811 46.9028 270.874 46.9028C274.876 46.9028 277.539 45.1479 277.539 42.0558C277.539 39.2284 275.676 38.0166 272.13 36.6656L268.529 35.2449C263.989 33.4203 260.719 30.8018 260.719 25.7459C260.719 19.9517 265.728 16.4557 272.723 16.4557C275.787 16.4557 278.657 17.1939 281.058 18.2107V23.2666C278.588 21.3167 275.318 19.701 271.978 19.701C268.446 19.701 266.045 21.3863 266.045 24.1441C266.045 26.9019 268.253 28.1137 271.716 29.604L276.656 31.5818C280.147 32.9746 282.824 36.2756 282.796 40.0641C282.741 46.2761 277.029 50.4267 270.46 50.4267C266.528 50.4267 263.451 49.7581 260.719 48.4071L260.733 48.3792Z" fill="#16031B"/>
<path d="M287.158 49.5904V17.277H293.161V49.6044H287.158V49.5904Z" fill="#16031B"/>
<path d="M298.057 48.3792V43.1283C301.327 45.6214 305.135 46.9028 308.199 46.9028C312.2 46.9028 314.863 45.1479 314.863 42.0558C314.863 39.2284 313.001 38.0166 309.454 36.6656L305.853 35.2449C301.313 33.4203 298.043 30.8018 298.043 25.7459C298.043 19.9517 303.052 16.4557 310.048 16.4557C313.111 16.4557 315.981 17.1939 318.382 18.2107V23.2666C315.912 21.3167 312.642 19.701 309.303 19.701C305.77 19.701 303.369 21.3863 303.369 24.1441C303.369 26.9019 305.577 28.1137 309.04 29.604L313.98 31.5818C317.471 32.9746 320.148 36.2756 320.121 40.0641C320.065 46.2761 314.353 50.4267 307.785 50.4267C303.852 50.4267 300.775 49.7581 298.043 48.4071L298.057 48.3792Z" fill="#16031B"/>
<path d="M215.459 16.4687C210.795 16.4687 206.724 19.1012 204.655 23.6139V3.40407H198.652V49.604H204.655V32.4305C204.655 25.7589 208.463 21.0511 213.334 21.0511C217.474 21.0511 219.667 23.8089 219.667 29.0598V49.604H225.67V27.4442C225.67 20.7168 221.806 16.4687 215.459 16.4687Z" fill="#16031B"/>
<path d="M165.204 10.8417C167.238 10.8417 168.888 9.17676 168.888 7.1229C168.888 5.06905 167.238 3.40407 165.204 3.40407C163.169 3.40407 161.52 5.06905 161.52 7.1229C161.52 9.17676 163.169 10.8417 165.204 10.8417Z" fill="#16031B"/>
<path d="M290.165 10.8417C292.199 10.8417 293.849 9.17676 293.849 7.1229C293.849 5.06905 292.199 3.40407 290.165 3.40407C288.13 3.40407 286.48 5.06905 286.48 7.1229C286.48 9.17676 288.13 10.8417 290.165 10.8417Z" fill="#16031B"/>
<path d="M26.2447 15.4393L15.3008 26.4815L26.2447 37.5236L37.1887 26.4815L26.2447 15.4393Z" fill="#F18271"/>
<path d="M34.1464 9.42645V-0.0219269H26.2423C11.7331 -0.0219269 -0.0253906 11.8421 -0.0253906 26.4815V34.4565H9.33896V12.0734C9.33896 10.6086 10.5191 9.42645 11.9623 9.42645H34.1464Z" fill="#F18271"/>
<path d="M18.3382 43.5365V52.9849H26.2423C40.7515 52.9849 52.51 41.1209 52.51 26.4815V18.5065H43.1457V40.8896C43.1457 42.3544 41.9656 43.5365 40.5223 43.5365H18.3382Z" fill="#F18271"/>
</g>
<defs>
<clipPath id="clip0_1891_6751">
<rect width="320" height="53" fill="white"/>
</clipPath>
</defs>
</svg>
