<?xml version="1.0" encoding="UTF-8"?>
<svg id="Layer_1" xmlns="http://www.w3.org/2000/svg" xmlns:xlink="http://www.w3.org/1999/xlink" version="1.1" width="240" height="97" viewBox="0 0 240 97">
  <!-- Generator: Adobe Illustrator 29.5.1, SVG Export Plug-In . SVG Version: 2.1.0 Build 141)  -->
  <defs>
    <style>
      .st0 {
        fill: none;
      }

      .st1 {
        fill: #fff;
      }

      .st2 {
        clip-path: url(#clippath);
      }
    </style>
    <clipPath id="clippath">
      <rect class="st0" width="240" height="96.9"/>
    </clipPath>
  </defs>
  <g class="st2">
    <g>
      <path class="st1" d="M57.3,21.9h11c1.2,0,2.1-.9,2.1-2.1v-8.5c0-1.2-.9-2.1-2.1-2.1h-3.5c-1.1,0-2-.9-2-2v-3.5c0-1.2-.9-2.1-2.1-2.1h-30.5c-1.2,0-2.1.9-2.1,2.1v3.5c0,1.1-.9,2-2,2h-3.5c-1.2,0-2.1.9-2.1,2.1v3.5c0,1.1-.9,2-2,2h-3.5c-1.2,0-2.1.9-2.1,2.1,0,0-.5,1.3-.5,23.7s.5,23.9.5,23.9c0,1.2.9,2.1,2.1,2.1h3.5c1.1,0,2,.9,2,2v3.6c0,1.1.9,2,2,2h3.6c1.1,0,2,.9,2,2v3.5c0,1.2.9,2.1,2.1,2.1h30.5c1.2,0,2.1-.9,2.1-2.1v-3.5c0-1.1.9-2,2-2h5.6c1.2,0,2.1-.9,2.1-2.1v-10.1c0-1.2-.9-2.1-2.1-2.1h-13.2c-1.2,0-2.1.9-2.1,2.1v5.1c0,1.1-.9,2-2,2h-15.4c-1.1,0-2-.9-2-2v-5.2c0-1.2-.9-2.1-2.1-2.1h-5.2c-1.1,0-1.8.2-2-2,0-.7-.1-1.6-.2-2.7-.2-2.9-.3-6-.3-14.7s.3-16.7.5-18.4c.2-1.7.9-2,2-2h5.2c1.2,0,2.1-.9,2.1-2.1v-3.5c0-1.1.9-2,2-2h15.4c1.1,0,2,.9,2,2v3.5c0,1.2.9,2.1,2.1,2.1Z"/>
      <path class="st1" d="M18.8,81.4h-2.5c-.5,0-.9-.4-.9-.9v-2.5c0-1-.8-1.8-1.8-1.8h-6.8c-1,0-1.8.8-1.8,1.8v2.5c0,.5-.4.9-.9.9H1.8c-1,0-1.8.8-1.8,1.8v6.8c0,1,.8,1.8,1.8,1.8h2.5c.5,0,.9.4.9.9v2.5c0,1,.8,1.8,1.8,1.8h6.8c1,0,1.8-.8,1.8-1.8v-2.5c0-.5.4-.9.9-.9h2.5c1,0,1.8-.8,1.8-1.8v-6.8c0-1-.8-1.8-1.8-1.8Z"/>
      <path class="st1" d="M238,38.1h-1.9c-1.1,0-2-.9-2-2v-3.6c0-1.1-.9-2-2-2h-3.6c-1.1,0-2-.9-2-2v-3.6c0-1.1-.9-2-2-2h-22.9c-1.1,0-2,.9-2,2v4.3c0,.6-.5,1-1,1h-3.9c-.6,0-.9-.3-1-1l-.7-4.3c-.2-1.2-.7-1.9-1.9-1.9l-4-.2h-2.2c-2.2,0-4.1,1.8-4.1,4.1v40.2c0,2.2-1.8,4.1-4.1,4.1h-9.2c-1.1,0-2-.9-2-2v-29.2c0-12.9-8.1-20.5-24.6-20.5s-22.2,5.5-23.1,15.7c-.1,1.3.6,2,1.9,2l8.5.6c1.2.1,1.7-.6,2-1.8.8-4.1,4.6-6.3,10.8-6.3s11,3.7,11,9.9v3.3c0,1.1-.9,2-2,2h-.4s-10.6,0-10.6,0c-16.8,0-25.1,6.5-25.1,19.5s.8,7.7,2.5,10.6h-.6c-1.9-1.4-2.7-2.4-3.3-3.2-.3-.3-.7-.6-1.5-.6h-8.4s-3.6,0-3.6,0c-2.2,0-4.1-1.8-4.1-4.1V1.9c0-1.2-.7-1.9-1.9-1.9h-9.2c-1.1,0-2,.8-2,1.9v59.1s0,14.8,0,14.8c0,4.5,3.6,8.1,8.1,8.1h55.5c9.2-.5,9.4-3.7,10.3-4.9.7,3.9,2,4.7,5.1,4.9,8.9.1,20,0,20.2,0h5.4c4.5,0,7.3-3.6,7.3-8.1l.8-29.7c0-1.1.9-2,2-2h2.2c.9,0,1.7-.8,1.7-1.7v-3.9c0-1.1.9-2,2-2h12.9c2,0,3.7,1.6,3.7,3.7v3.5c0,1.2.9,2.1,2.1,2.1h4.5c.6,0,1,.5,1,1v35.1c0,1.1.9,2,2,2h7.5c2.2,0,4.1-1.8,4.1-4.1v-39.7c0-1.1-.9-2-2-2h0ZM152.3,59c0,9.7-6.7,16-16.7,16s-10.7-3.2-10.7-9.5,4.2-10.5,12.7-10.5h14.7v4h0Z"/>
    </g>
  </g>
</svg>