<svg xmlns="http://www.w3.org/2000/svg" xml:space="preserve" width="418" height="179" viewBox="0 0 418 179"><path fill="#00539e" d="M106.144 125.143c-.002 29.172-23.652 52.823-52.828 52.823-29.175.001-52.825-23.646-52.824-52.82l.006-63.032 105.645-.003z"/><g fill="#ffcb00"><path d="m44.752 139.99-5.52-4.315 28.85-36.914 5.52 4.315zM32.098 160.555c-.958 1.146-2.672 1.303-3.677.53l-5.6-4.372c-.999-.782-1.356-2.417-.405-3.636l.81-1.038a2.56 2.56 0 0 1 3.628-.454l5.594 4.359c1.015.803 1.26 2.517.483 3.546zM73.532 79.832l-1.731 3.738c-.08.162-.017.54.176.698 1.433 1.229 2.134 3.226 2 4.88 0 1.803-.607 3.08-2.183 4.87l5.541 4.329c1.356-1.962 2.448-2.859 4.199-3.295 1.571-.531 3.677-.334 5.217.759.201.148.583.12.721 0l3.209-2.582zM91.519 92.527l8.713-6.778c.132-.104.096-.617-.385-.52l-5.357.499.037-3.814c.016-.245-.349-.573-.603-.493l-3.677 1.015 1.785-8.124a.41.41 0 0 0-.098-.363.41.41 0 0 0-.376-.007l-7.451 3.697.096-3.813c.016-.265-.39-.541-.625-.466l-3.692.959L79.075 69c-.023-.49-.529-.402-.597-.248l-4.47 10.094zM77.23 99.67c1.54 1.177-.789 4.281-2.388 3.056l-6.695-5.23c-1.576-1.258.872-4.266 2.389-3.057zM44.663 141.353c1.539 1.18-.789 4.283-2.389 3.059l-6.694-5.23c-1.577-1.257.872-4.268 2.388-3.057zM33.049 155.053l-5.53-4.32 7.965-10.197 5.53 4.32zM58.441 124.184l9.072 11.613-5.52 4.315-7.997-10.24zM38.492 98.643l14.182 18.154-4.444 5.691-15.256-19.532zM74.662 160.671c.958 1.146 2.672 1.303 3.677.53l5.599-4.373c1-.78 1.358-2.417.405-3.636l-.81-1.036a2.557 2.557 0 0 0-3.626-.456l-5.595 4.359c-1.016.804-1.261 2.519-.484 3.547zM33.047 79.715l1.729 3.738c.081.162.018.541-.175.7-1.432 1.229-2.132 3.225-1.998 4.878-.001 1.804.606 3.081 2.181 4.87l-5.541 4.33c-1.356-1.963-2.447-2.86-4.198-3.295-1.573-.531-3.678-.335-5.218.759-.2.148-.583.117-.72 0l-3.209-2.583zM15.059 92.412l-8.713-6.779c-.131-.104-.096-.615.386-.52l5.357.499-.037-3.814c-.016-.245.349-.573.603-.492l3.677 1.014-1.784-8.124a.41.41 0 0 1 .096-.363.42.42 0 0 1 .377-.006l7.451 3.697-.095-3.814c-.016-.266.391-.542.624-.466l3.692.959.812-5.32c.023-.489.528-.401.598-.248l4.468 10.094zM29.348 99.554c-1.54 1.179.789 4.282 2.389 3.056l6.694-5.229c1.577-1.257-.872-4.266-2.388-3.058zM62.096 141.469c-1.539 1.18.788 4.283 2.389 3.057l6.694-5.229c1.577-1.257-.872-4.267-2.39-3.058zM65.742 144.974l5.53-4.32 7.965 10.194-5.53 4.32z"/></g><path fill="#ffcb00" d="M21.924 56.006c-.083-.091-15.493-40.82-15.813-41.475 1.021.316 3.612 1.776 7.25 2.592 1.203.281 2.001.339 3.301 2.125.698 1.108.563 2.829.366 3.808.158.488 1.011.853 1.447.296 1.096-1.903 2.682-5.481 7.464-4.765 3.911.478 5.28 5.806 3.256 7.661-.739.89-3.534 3.631-.616 5.309-.701 1.028-3.076 1.835-4.164.277-.8-1.251-.593-1.44-.117-3.442.096-1.968-2.139-2.223-3.104-1.939-.899.294-1.734 1.334-1.871 3.55-.373 5.1 3.136 12.862 10.947 10.781 4.389-1.169 4.821-3.314 4.858-5.943a2.73 2.73 0 1 1 1.33-.261c.061.255.215.64.316.894.907 2.082 2.241 3.55 6.3 3.189 8.053-.716 8.695-9.211 6.601-13.875-.886-2.036-2.027-2.727-2.973-2.695-1.004.063-3.016 1.067-2.254 2.884 1.132 1.718 1.392 1.825 1.068 3.274-.489 1.836-2.998 1.89-4.007 1.164 2.167-2.574-1.397-4.194-2.395-4.777-2.537-1.051-3.072-6.527.44-8.313 4.249-2.309 6.963.513 8.644 1.926.599.374 1.276-.261 1.258-.774-.423-.693-1.368-1.629-1.41-2.729-.202-1.21.014-2.453.508-3.346 1.003-1.731 3.028-3.031 4.813-7.249 1.783 4.218 3.8 5.517 4.805 7.249.494.893.709 2.136.507 3.346-.042 1.101-.986 2.036-1.41 2.729-.02.513.659 1.148 1.258.774 1.68-1.413 4.394-4.234 8.643-1.926 3.513 1.786 2.976 7.263.44 8.313-.998.583-4.562 2.204-2.395 4.777-1.009.726-3.518.672-4.009-1.164-.323-1.449-.063-1.556 1.069-3.274.762-1.817-1.25-2.821-2.254-2.884-.945-.032-2.086.66-2.973 2.695-2.095 4.665-1.451 13.16 6.601 13.875 4.06.361 5.394-1.107 6.3-3.189.1-.254.256-.638.316-.894a2.729 2.729 0 1 1 1.33.261c.038 2.629.469 4.774 4.857 5.943 7.81 2.081 11.322-5.682 10.948-10.781-.136-2.216-.971-3.256-1.87-3.55-.966-.284-3.2-.029-3.104 1.939.475 2.002.683 2.191-.117 3.442-1.089 1.558-3.462.75-4.165-.277 2.917-1.677.122-4.418-.616-5.309-2.024-1.855-.655-7.184 3.256-7.661 4.782-.716 6.368 2.862 7.464 4.765.434.557 1.289.192 1.446-.296-.197-.979-.332-2.7.368-3.808 1.299-1.786 2.098-1.845 3.3-2.125 3.638-.816 6.229-2.276 7.249-2.592-.321.655-15.73 41.384-15.812 41.475z"/><path fill="#00539e" d="M21.211 57.235 18.567 50.1l-5.389-14.186c-3.91-10.296-7.846-20.662-8.008-20.99L4.82 13.9s.16-.478.51-.606c.255-.159 2.039.797 3.802 1.356 1.231.39 2.71 1.045 4.476 1.442 1.865.436 2.635.774 3.934 2.56.597.945.59 2.438.554 3.446 1.705-3.118 4.157-5.135 8.084-4.547 4.652.581 6.541 6.862 3.871 9.416-.822.978-2.662 2.719-.854 3.758.375.149.823.044.823.044s-.185.974-.489 1.411c-.875 1.282-4.163 2.724-5.876.271-.727-1.136-.854-1.779-.559-3.049l.271-1.108c-.028-.684-.917-1.112-1.814-.848-.337.12-1.037.662-1.16 2.666-.363 4.967 2.683 11.487 9.421 9.693 3.393-.905 4.296-2.191 4.418-4.069a3.765 3.765 0 0 1-2.56-3.567c0-2.078 1.426-3.763 3.505-3.763a3.762 3.762 0 0 1 2.402 6.659c.784 1.803 1.783 2.83 5.399 2.509 6.946-.618 7.786-7.823 5.747-12.367-.814-1.871-1.673-2.117-2.02-2.106-.925.066-1.604.768-1.396 1.416l.635.949c.71 1.092.812 1.741.517 3.056-.77 2.892-4.354 2.66-5.614 1.754-.535-.401-.956-1.243-.956-1.243s.658-.027.771-.239c1.352-1.604-1.005-2.61-2.112-3.254-3.357-1.51-3.73-8.034.45-10.162 3.336-1.812 5.707-.984 8.133.77.249.179.466.449.629.628-.142-.327-.191-.38-.355-.709-.169-.363-.367-.78-.399-1.241-.227-1.416.023-2.895.636-4.002.613-1.056 1.48-1.918 2.232-2.871.815-1.03 1.739-2.3 2.57-4.368.131-.229.406-1.01.608-1.127.065-.056.143-.09.298-.11.155.02.253.054.318.11.203.117.478.897.608 1.127.831 2.068 1.756 3.338 2.571 4.368.752.952 1.619 1.814 2.231 2.871.614 1.108.865 2.587.636 4.002-.031.461-.229.877-.399 1.241-.164.329-.213.382-.354.709.162-.18.38-.449.629-.628 2.426-1.754 4.796-2.581 8.132-.77 4.181 2.127 3.809 8.651.45 10.162-1.106.644-3.464 1.649-2.111 3.254.112.212.771.239.771.239s-.421.842-.956 1.243c-1.261.906-4.843 1.137-5.615-1.754-.293-1.315-.194-1.963.518-3.056l.634-.949c.208-.648-.47-1.35-1.396-1.416-.348-.011-1.205.235-2.019 2.106-2.042 4.544-1.2 11.749 5.746 12.367 3.617.32 4.614-.706 5.398-2.509a3.763 3.763 0 0 1 2.404-6.659c2.08 0 3.506 1.685 3.506 3.763a3.765 3.765 0 0 1-2.561 3.567c.122 1.877 1.026 3.164 4.418 4.069 6.737 1.794 9.785-4.726 9.421-9.693-.123-2.004-.823-2.545-1.159-2.666-.898-.265-1.788.164-1.815.848l.272 1.108c.295 1.271.167 1.914-.559 3.049-1.714 2.453-5.001 1.011-5.876-.271-.305-.437-.489-1.411-.489-1.411s.448.105.824-.044c1.808-1.039-.033-2.78-.854-3.758-2.671-2.554-.781-8.835 3.87-9.416 3.929-.588 6.381 1.429 8.084 4.547-.035-1.008-.042-2.501.555-3.446 1.298-1.785 2.067-2.124 3.934-2.56 1.764-.397 3.243-1.052 4.475-1.442 1.763-.559 3.548-1.515 3.803-1.356.35.128.509.606.509.606l-.351 1.024c-.161.328-4.096 10.694-8.007 20.99L88.16 50.1l-2.643 7.135z"/><path fill="#ffcb00" d="M21.924 56.006c-.083-.091-15.493-40.82-15.813-41.475 1.021.316 3.612 1.776 7.25 2.592 1.203.281 2.001.339 3.301 2.125.698 1.108.563 2.829.366 3.808.158.488 1.011.853 1.447.296 1.096-1.903 2.682-5.481 7.464-4.765 3.911.478 5.28 5.806 3.256 7.661-.739.89-3.534 3.631-.616 5.309-.701 1.026-3.076 1.835-4.164.277-.8-1.251-.593-1.44-.117-3.442.096-1.968-2.139-2.223-3.104-1.939-.899.294-1.734 1.334-1.871 3.55-.373 5.101 3.136 12.862 10.947 10.782 4.389-1.17 4.821-3.313 4.858-5.945a2.728 2.728 0 1 1 1.33-.261c.061.256.215.64.316.895.907 2.082 2.241 3.551 6.3 3.188 8.053-.716 8.695-9.211 6.601-13.875-.886-2.036-2.027-2.727-2.973-2.695-1.004.063-3.016 1.067-2.254 2.884 1.132 1.718 1.392 1.825 1.068 3.274-.489 1.836-2.998 1.89-4.007 1.164 2.167-2.574-1.397-4.194-2.395-4.777-2.537-1.051-3.072-6.527.44-8.313 4.249-2.309 6.963.513 8.644 1.926.599.374 1.276-.261 1.258-.774-.423-.693-1.368-1.629-1.41-2.729-.202-1.21.014-2.453.508-3.346 1.003-1.731 3.028-3.031 4.813-7.249 1.783 4.218 3.8 5.517 4.805 7.249.494.893.709 2.136.507 3.346-.042 1.101-.986 2.036-1.41 2.729-.02.513.659 1.148 1.258.774 1.68-1.413 4.394-4.234 8.643-1.926 3.513 1.786 2.976 7.263.44 8.313-.998.583-4.562 2.204-2.395 4.777-1.009.726-3.518.672-4.009-1.164-.323-1.449-.063-1.556 1.069-3.274.762-1.817-1.25-2.821-2.254-2.884-.945-.032-2.086.66-2.973 2.695-2.095 4.665-1.451 13.16 6.601 13.875 4.06.362 5.394-1.107 6.3-3.188.1-.254.256-.639.316-.895a2.727 2.727 0 0 1 1.175-5.191 2.73 2.73 0 0 1 .155 5.452c.038 2.631.469 4.774 4.857 5.945 7.81 2.08 11.322-5.681 10.948-10.782-.136-2.216-.971-3.256-1.87-3.55-.966-.284-3.2-.029-3.104 1.939.475 2.002.683 2.191-.117 3.442-1.089 1.558-3.462.75-4.165-.277 2.917-1.678.122-4.419-.616-5.309-2.024-1.855-.655-7.184 3.256-7.661 4.782-.716 6.368 2.862 7.464 4.765.434.557 1.289.192 1.446-.296-.197-.979-.332-2.7.368-3.808 1.299-1.786 2.098-1.845 3.3-2.125 3.638-.816 6.229-2.276 7.249-2.592-.321.655-15.73 41.384-15.812 41.475z"/><g fill="#00539e"><path d="M133.488 70.584c0-4.51 0-5.349-.035-6.292-.07-1.014-.35-1.328-1.329-1.608-.245-.07-.769-.105-1.223-.105-.315 0-.524-.105-.524-.314s.245-.28.699-.28c1.608 0 3.845.07 4.649.07.734 0 2.691-.07 3.915-.07.419 0 .629.07.629.28 0 .209-.175.314-.56.314-.314 0-.524.035-.874.105-.839.14-1.083.559-1.153 1.608-.07.944-.07 1.783-.07 6.292v5.523c0 1.258.104 2.692.104 4.195 0 1.678-.104 3.566-.734 5.244-.664 1.818-2.552 3.916-5.523 5.663-.384.21-.874.455-1.538.77-.21.104-.489.14-.629.14s-.245-.14-.245-.279c0-.141.14-.28.664-.524.419-.21.874-.56 1.468-1.154 2.342-2.272 2.308-5.208 2.308-11.046v-8.532zM150.687 76.946c-.175 0-.21.035-.28.21l-1.643 4.02c-.314.734-.454 1.468-.454 1.818 0 .524.279.839 1.223.839h.455c.385 0 .455.14.455.314 0 .245-.175.315-.489.315-1.014 0-2.447-.105-3.426-.105-.314 0-1.958.105-3.565.105-.385 0-.56-.07-.56-.315 0-.175.105-.314.35-.314.28 0 .629-.035.909-.035 1.398-.209 1.922-1.118 2.552-2.622l8.041-18.563c.35-.839.594-1.189.909-1.189.455 0 .594.28.909.944.734 1.643 5.873 13.668 7.83 18.178 1.189 2.692 2.063 3.077 2.622 3.181.455.07.804.105 1.154.105q.419 0 .419.314c0 .245-.175.315-1.329.315-1.083 0-3.321 0-5.908-.07-.56-.035-.909-.035-.909-.245 0-.175.07-.279.385-.314.21-.035.419-.314.28-.664l-2.377-6.013c-.07-.175-.175-.21-.314-.21h-7.239zm6.572-1.643c.14 0 .175-.07.14-.175l-2.901-7.446c-.035-.105-.07-.28-.14-.28-.104 0-.14.175-.175.28l-2.971 7.411c-.07.14 0 .209.105.209zM193.054 82.47c0 .804 0 .839-.384 1.049-2.063 1.014-5.104 1.328-7.516 1.328-7.551 0-14.228-3.426-14.228-11.641 0-4.754 2.552-8.076 5.384-9.718 2.937-1.713 5.698-1.923 8.285-1.923 2.132 0 4.824.35 5.453.489.629.105 1.713.28 2.447.315.35.035.419.14.419.349 0 .35-.21 1.154-.21 4.895 0 .454-.175.664-.419.664-.209 0-.279-.14-.314-.385-.07-.664-.245-1.608-1.049-2.447-.909-.944-3.216-2.272-6.677-2.272-1.678 0-3.811.035-5.943 1.748-1.713 1.398-2.832 3.601-2.832 7.236 0 6.397 4.125 11.046 10.697 11.046.804 0 1.434 0 2.167-.314.455-.209.594-.524.594-1.049v-2.727c0-1.468 0-2.587-.035-3.496-.035-1.014-.35-1.329-1.329-1.608-.245-.07-.769-.105-1.188-.105-.28 0-.489-.14-.489-.314 0-.245.245-.28.664-.28 1.608 0 3.811.07 4.719.07.979 0 2.587-.07 3.601-.07.419 0 .629.035.629.28 0 .175-.175.314-.385.314-.245 0-.489.035-.839.105-.839.14-1.153.56-1.188 1.608-.035.909-.035 2.097-.035 3.565v3.288zM204.484 70.584c0-4.51 0-5.349-.035-6.292-.07-1.014-.385-1.363-1.049-1.573a4 4 0 0 0-1.119-.14c-.314 0-.489-.07-.489-.35 0-.175.245-.245.734-.245 1.154 0 3.251.07 4.125.07.769 0 2.762-.07 3.951-.07.384 0 .629.07.629.245 0 .28-.175.35-.489.35s-.56.035-.909.105c-.839.14-1.083.559-1.153 1.608-.07.944-.07 1.783-.07 6.292v5.244c0 2.867 0 5.244.14 6.502.105.804.314 1.258 1.224 1.398.419.07 1.119.105 1.573.105.35 0 .489.175.489.314 0 .21-.244.315-.594.315-2.028 0-4.125-.105-4.964-.105-.699 0-2.796.105-4.02.105-.384 0-.594-.105-.594-.315 0-.14.105-.314.489-.314.455 0 .804-.035 1.084-.105.629-.14.804-.559.909-1.433.14-1.224.14-3.601.14-6.467v-5.244zM221.544 70.584c0-4.51 0-5.349-.035-6.292-.07-1.014-.35-1.328-1.328-1.608-.245-.07-.77-.105-1.224-.105-.314 0-.524-.105-.524-.314s.244-.28.699-.28c1.607 0 3.565.07 4.439.07.979 0 7.796.035 8.39 0 .56-.035 1.049-.14 1.294-.175.175-.035.35-.14.489-.14.175 0 .21.14.21.28 0 .209-.175.559-.245 1.922-.035.315-.104 1.608-.175 1.958-.035.14-.104.49-.35.49-.21 0-.244-.14-.244-.385 0-.209-.035-.734-.21-1.083-.245-.524-.489-.944-2.027-1.084-.524-.07-4.195-.14-4.824-.14-.141 0-.21.105-.21.28v7.341c0 .175.035.314.21.314.699 0 4.684 0 5.383-.07.734-.07 1.154-.175 1.469-.455.244-.21.35-.385.489-.385s.244.14.244.315-.069.664-.244 2.167c-.07.594-.14 1.783-.14 1.992 0 .245-.035.665-.314.665-.21 0-.28-.105-.28-.245-.035-.315-.035-.699-.104-1.084-.175-.594-.56-1.049-1.713-1.153-.56-.07-4.056-.14-4.824-.14-.14 0-.175.14-.175.315v2.377c0 1.014-.035 3.531 0 4.405.069 2.027 1.014 2.482 4.16 2.482.804 0 2.097-.035 2.901-.385.769-.35 1.118-.979 1.328-2.202.07-.314.14-.455.35-.455.245 0 .279.385.279.699 0 .664-.244 2.692-.419 3.286-.21.769-.489.769-1.644.769-2.307 0-4.159-.035-5.663-.105-1.503-.035-2.656-.07-3.565-.07-.35 0-1.014.035-1.748.035-.734.035-1.503.07-2.132.07-.385 0-.595-.105-.595-.315 0-.14.104-.314.489-.314.454 0 .804-.035 1.084-.105.629-.14.804-.699.909-1.573.14-1.259.14-3.601.14-6.328zM247.936 75.828c0 3.811 0 5.698.664 6.257.524.455 1.713.629 4.09.629 1.644 0 2.832-.035 3.601-.839.385-.385.699-1.224.77-1.783.035-.28.104-.455.35-.455.21 0 .279.314.279.664s-.21 2.552-.454 3.426c-.21.665-.35.804-1.958.804-2.202 0-3.985-.035-5.523-.105-1.538-.035-2.831-.07-4.09-.07-.35 0-1.014.035-1.748.035-.734.035-1.503.07-2.132.07-.385 0-.595-.105-.595-.315 0-.14.104-.314.489-.314.455 0 .804-.035 1.084-.105.629-.14.804-.699.909-1.573.14-1.259.14-3.601.14-6.328v-5.244c0-4.51 0-5.349-.035-6.292-.07-1.014-.35-1.328-1.328-1.608-.245-.07-.63-.105-1.014-.105q-.524 0-.524-.314c0-.21.209-.28.664-.28 1.433 0 3.391.07 4.229.07.734 0 3.251-.07 4.439-.07.455 0 .665.07.665.28 0 .209-.175.314-.56.314-.35 0-.839.035-1.188.105-.839.14-1.084.559-1.154 1.608-.069.944-.069 1.783-.069 6.292zM270.063 75.828c0 3.811 0 5.698.664 6.257.524.455 1.713.629 4.09.629 1.644 0 2.832-.035 3.601-.839.385-.385.699-1.224.77-1.783.035-.28.104-.455.35-.455.21 0 .279.314.279.664s-.21 2.552-.454 3.426c-.21.665-.35.804-1.958.804-2.202 0-3.985-.035-5.523-.105-1.538-.035-2.831-.07-4.09-.07-.35 0-1.014.035-1.748.035-.734.035-1.503.07-2.132.07-.385 0-.595-.105-.595-.315 0-.14.104-.314.489-.314.454 0 .804-.035 1.084-.105.629-.14.804-.699.909-1.573.14-1.259.14-3.601.14-6.328v-5.244c0-4.51 0-5.349-.035-6.292-.07-1.014-.35-1.328-1.328-1.608-.245-.07-.63-.105-1.014-.105q-.524 0-.524-.314c0-.21.209-.28.664-.28 1.433 0 3.391.07 4.229.07.734 0 3.251-.07 4.439-.07.455 0 .665.07.665.28 0 .209-.175.314-.56.314-.35 0-.839.035-1.188.105-.839.14-1.084.559-1.154 1.608-.069.944-.069 1.783-.069 6.292zM284.011 73.206c0-5.069 3.566-11.641 12.899-11.641 7.761 0 12.585 4.3 12.585 11.117 0 6.816-4.964 12.165-12.899 12.165-8.95 0-12.585-6.363-12.585-11.641m20.905.559c0-6.572-3.95-10.627-8.914-10.627-3.427 0-7.446 1.817-7.446 9.159 0 6.118 3.496 10.942 9.299 10.942 2.166 0 7.061-1.014 7.061-9.474M319.982 80.407c.069 2.307.454 3.006 1.048 3.216.524.174 1.119.209 1.608.209.35 0 .524.14.524.314 0 .245-.279.315-.699.315-1.992 0-3.426-.105-3.985-.105-.279 0-1.748.105-3.32.105-.42 0-.699-.035-.699-.315 0-.175.209-.314.489-.314.419 0 .979-.035 1.398-.14.804-.21.908-1.014.943-3.601l.28-17.619c0-.594.209-1.014.524-1.014.384 0 .804.455 1.328.979.385.384 4.999 5.104 9.474 9.474 2.098 2.063 6.188 6.257 6.642 6.677h.14l-.314-13.214c-.035-1.818-.314-2.342-1.049-2.622-.454-.175-1.188-.175-1.607-.175-.385 0-.49-.14-.49-.314 0-.245.315-.28.77-.28 1.608 0 3.251.07 3.915.07.35 0 1.504-.07 3.007-.07.419 0 .699.035.699.28 0 .175-.175.314-.524.314-.314 0-.56 0-.944.105-.839.245-1.083.769-1.118 2.447l-.35 18.738c0 .664-.245.944-.489.944-.524 0-.944-.315-1.259-.629-1.923-1.783-5.769-5.454-8.984-8.564-3.355-3.216-6.606-6.817-7.201-7.341h-.104zM350.289 70.584c0-4.51 0-5.349-.035-6.292-.07-1.014-.385-1.363-1.049-1.573a4 4 0 0 0-1.118-.14c-.315 0-.49-.07-.49-.35 0-.175.245-.245.734-.245 1.153 0 3.251.07 4.125.07.77 0 2.762-.07 3.95-.07.385 0 .63.07.63.245 0 .28-.175.35-.49.35-.314 0-.559.035-.908.105-.839.14-1.084.559-1.154 1.608-.069.944-.069 1.783-.069 6.292v5.244c0 2.867 0 5.244.14 6.502.104.804.314 1.258 1.224 1.398.419.07 1.118.105 1.573.105.35 0 .489.175.489.314 0 .21-.245.315-.595.315-2.027 0-4.125-.105-4.964-.105-.699 0-2.797.105-4.02.105-.385 0-.595-.105-.595-.315 0-.14.104-.314.489-.314.455 0 .804-.035 1.084-.105.629-.14.804-.559.909-1.433.14-1.224.14-3.601.14-6.467zM368.677 76.946c-.175 0-.21.035-.279.21l-1.644 4.02c-.314.734-.454 1.468-.454 1.818 0 .524.279.839 1.224.839h.454c.385 0 .454.14.454.314 0 .245-.175.315-.489.315-1.014 0-2.446-.105-3.426-.105-.314 0-1.957.105-3.565.105-.385 0-.56-.07-.56-.315 0-.175.105-.314.35-.314.28 0 .629-.035.909-.035 1.398-.209 1.923-1.118 2.552-2.622l8.04-18.563c.35-.839.595-1.189.909-1.189.454 0 .595.28.909.944.733 1.643 5.873 13.668 7.83 18.178 1.188 2.692 2.063 3.077 2.622 3.181.454.07.804.105 1.153.105q.42 0 .42.314c0 .245-.175.315-1.328.315-1.084 0-3.321 0-5.908-.07-.56-.035-.909-.035-.909-.245 0-.175.07-.279.385-.314.21-.035.42-.314.279-.664l-2.377-6.013c-.069-.175-.175-.21-.314-.21h-7.237zm6.572-1.643c.14 0 .175-.07.14-.175l-2.901-7.446c-.035-.105-.07-.28-.14-.28-.105 0-.14.175-.175.28l-2.972 7.411c-.07.14 0 .209.104.209zM394.195 80.407c.069 2.307.454 3.006 1.048 3.216.524.174 1.119.209 1.608.209.35 0 .524.14.524.314 0 .245-.279.315-.699.315-1.992 0-3.426-.105-3.985-.105-.279 0-1.748.105-3.32.105-.42 0-.699-.035-.699-.315 0-.175.209-.314.489-.314.419 0 .979-.035 1.398-.14.804-.21.908-1.014.943-3.601l.28-17.619c0-.594.209-1.014.524-1.014.384 0 .804.455 1.328.979.385.384 4.999 5.104 9.474 9.474 2.098 2.063 6.188 6.257 6.642 6.677h.14l-.314-13.214c-.035-1.818-.314-2.342-1.049-2.622-.454-.175-1.188-.175-1.607-.175-.385 0-.49-.14-.49-.314 0-.245.315-.28.77-.28 1.608 0 3.251.07 3.915.07.35 0 1.504-.07 3.007-.07.419 0 .699.035.699.28 0 .175-.175.314-.524.314-.314 0-.56 0-.944.105-.839.245-1.083.769-1.118 2.447l-.35 18.738c0 .664-.245.944-.489.944-.524 0-.944-.315-1.259-.629-1.923-1.783-5.769-5.454-8.984-8.564-3.355-3.216-6.606-6.817-7.201-7.341h-.104zM132.16 111.783c0-4.51.035-5.349-.035-6.292-.07-1.049-.35-1.329-1.328-1.608-.245-.07-.769-.104-1.188-.104q-.525 0-.524-.315c0-.209.209-.279.664-.279 1.643 0 3.706.07 4.614.07.769 0 2.832-.07 3.95-.07.455 0 .665.07.665.279s-.175.315-.49.315c-.35 0-.524.034-.909.104-.804.14-1.049.56-1.119 1.608-.07.943-.07 1.782-.07 6.292v4.16c0 4.335.839 6.013 2.342 7.201 1.363 1.084 2.832 1.188 3.88 1.188 1.329 0 2.902-.385 4.125-1.573 1.713-1.607 1.783-4.194 1.783-7.236v-3.74c0-4.51-.035-5.349-.07-6.292-.07-1.015-.315-1.329-1.293-1.608-.245-.07-.769-.104-1.119-.104s-.524-.105-.524-.315c0-.209.209-.279.629-.279 1.573 0 3.636.07 3.671.07.35 0 2.412-.07 3.601-.07.419 0 .629.07.629.279q0 .315-.524.315c-.524 0-.524.034-.909.104-.839.14-1.049.56-1.119 1.608-.035.943-.07 1.782-.07 6.292v3.182c0 3.32-.35 6.816-2.937 8.949-2.167 1.817-4.509 2.132-6.502 2.132-1.608 0-4.79-.069-7.027-2.027-1.573-1.363-2.796-3.565-2.796-7.865zM169.563 121.606c.07 2.308.455 3.006 1.049 3.216.524.175 1.119.21 1.608.21.35 0 .524.14.524.314 0 .245-.28.314-.699.314-1.993 0-3.426-.104-3.985-.104-.28 0-1.748.104-3.321.104-.419 0-.699-.034-.699-.314 0-.175.21-.314.49-.314.419 0 .979-.035 1.398-.14.804-.21.909-1.014.944-3.601l.28-17.619c0-.594.21-1.014.524-1.014.385 0 .804.454 1.329.979.384.385 4.999 5.104 9.474 9.474 2.097 2.063 6.188 6.258 6.642 6.678h.14l-.315-13.215c-.035-1.817-.314-2.342-1.048-2.621-.455-.175-1.189-.175-1.608-.175-.384 0-.489-.141-.489-.315 0-.244.314-.279.769-.279 1.608 0 3.251.07 3.916.07.349 0 1.503-.07 3.006-.07.419 0 .699.035.699.279 0 .175-.175.315-.524.315-.315 0-.56 0-.944.104-.839.245-1.084.769-1.119 2.447l-.35 18.737c0 .664-.245.943-.49.943-.524 0-.944-.314-1.258-.629-1.923-1.783-5.768-5.453-8.984-8.564-3.356-3.217-6.607-6.817-7.201-7.342h-.105zM205.324 111.783c0-4.51 0-5.349-.035-6.292-.07-1.015-.385-1.363-1.049-1.573a4 4 0 0 0-1.119-.14c-.314 0-.489-.07-.489-.35 0-.175.245-.245.734-.245 1.154 0 3.251.07 4.125.07.769 0 2.762-.07 3.951-.07.384 0 .629.07.629.245 0 .279-.175.35-.489.35s-.56.034-.909.104c-.839.14-1.083.56-1.153 1.608-.07.943-.07 1.782-.07 6.292v5.244c0 2.866 0 5.243.14 6.502.105.804.314 1.258 1.223 1.398.42.069 1.119.104 1.573.104.35 0 .489.175.489.314 0 .21-.244.314-.594.314-2.027 0-4.125-.104-4.964-.104-.699 0-2.796.104-4.02.104-.384 0-.594-.104-.594-.314 0-.14.105-.314.489-.314.455 0 .804-.035 1.084-.104.629-.141.804-.56.909-1.434.14-1.224.14-3.601.14-6.467v-5.242zM224.936 106.085c-.699-1.643-1.154-1.923-2.272-2.202-.455-.104-.944-.104-1.188-.104-.28 0-.35-.141-.35-.315 0-.244.314-.279.769-.279 1.644 0 3.392.07 4.475.07.77 0 2.377-.07 3.916-.07.384 0 .733.07.733.279s-.21.315-.489.315c-.489 0-.943.034-1.188.209a.65.65 0 0 0-.314.595c0 .385.279 1.188.699 2.237l5.174 13.318h.104c1.328-3.076 5.278-12.654 6.013-14.612.14-.384.28-.839.28-1.083 0-.314-.141-.42-.42-.524-.35-.105-.839-.14-1.224-.14-.279 0-.524-.105-.524-.315 0-.209.28-.279.874-.279 1.538 0 2.901.07 3.286.07.524 0 1.958-.07 2.901-.07.385 0 .629.07.629.279s-.175.315-.489.315-.979-.035-1.503.35c-.385.279-.804.733-1.608 2.621-1.224 2.797-2.027 4.405-3.705 8.041-1.958 4.334-3.391 7.585-4.09 9.089-.77 1.713-1.049 2.167-1.469 2.167-.419 0-.664-.385-1.258-1.782zM258.389 111.783c0-4.51 0-5.349-.035-6.292-.07-1.015-.35-1.329-1.328-1.608-.245-.07-.77-.104-1.224-.104-.314 0-.524-.105-.524-.315 0-.209.244-.279.699-.279 1.607 0 3.565.07 4.439.07.979 0 7.796.034 8.39 0 .56-.035 1.049-.141 1.294-.175.175-.035.35-.141.489-.141.175 0 .21.141.21.28 0 .21-.175.56-.245 1.923-.035.314-.104 1.607-.175 1.957-.035.14-.104.489-.35.489-.21 0-.244-.14-.244-.384 0-.21-.035-.734-.21-1.084-.245-.524-.489-.944-2.027-1.084-.524-.069-4.195-.14-4.824-.14-.141 0-.21.104-.21.279v7.342c0 .175.035.314.21.314.698 0 4.684 0 5.383-.07.734-.069 1.154-.175 1.469-.454.244-.21.35-.385.489-.385s.244.14.244.314-.069.665-.244 2.168a30 30 0 0 0-.14 1.992c0 .245-.035.664-.314.664-.21 0-.28-.104-.28-.244-.035-.314-.035-.699-.104-1.084-.175-.594-.56-1.049-1.713-1.153-.56-.07-4.056-.14-4.824-.14-.14 0-.175.14-.175.314v2.377c0 1.014-.035 3.53 0 4.404.069 2.028 1.014 2.482 4.16 2.482.804 0 2.097-.035 2.901-.385.769-.35 1.118-.979 1.328-2.202.07-.314.14-.454.35-.454.245 0 .279.384.279.699 0 .664-.244 2.691-.419 3.285-.21.77-.489.77-1.644.77-2.307 0-4.159-.035-5.663-.104-1.503-.035-2.656-.07-3.565-.07-.35 0-1.014.035-1.748.035a48 48 0 0 1-2.132.069c-.385 0-.595-.104-.595-.314 0-.14.104-.314.489-.314.455 0 .804-.035 1.084-.104.629-.141.804-.699.909-1.573.14-1.259.14-3.601.14-6.327zM286.109 111.783c0-4.51 0-5.349-.035-6.292-.07-1.015-.35-1.329-1.328-1.608-.245-.07-.77-.104-1.224-.104-.314 0-.524-.105-.524-.315 0-.209.244-.279.699-.279 1.607 0 3.565.07 4.194.07 1.049 0 3.846-.07 4.79-.07 1.957 0 4.194.175 5.838 1.259.874.594 2.167 2.097 2.167 4.09 0 2.202-1.259 4.16-4.265 6.572 2.727 3.355 4.894 6.048 6.747 7.9 1.713 1.713 2.796 1.853 3.286 1.957.314.07.489.07.733.07.245 0 .385.175.385.314 0 .245-.21.314-.595.314h-2.936c-1.713 0-2.553-.175-3.356-.594-1.328-.664-2.482-2.063-4.195-4.37-1.223-1.607-2.517-3.601-2.901-4.055-.175-.175-.35-.21-.559-.21l-2.762-.07c-.141 0-.245.07-.245.245v.42c0 2.762.035 5.068.175 6.327.104.874.245 1.433 1.188 1.573.454.069 1.119.104 1.503.104.245 0 .385.175.385.314 0 .21-.244.314-.629.314-1.783 0-4.335-.104-4.789-.104-.595 0-2.553.104-3.775.104-.385 0-.595-.104-.595-.314 0-.14.104-.314.489-.314.455 0 .804-.035 1.084-.104.629-.141.804-.699.909-1.573.14-1.259.14-3.601.14-6.327v-5.244zm3.915 2.308c0 .314.07.419.279.524.665.209 1.573.279 2.343.279 1.224 0 1.643-.104 2.167-.489.944-.664 1.993-1.958 1.993-4.405 0-4.194-2.867-5.278-4.685-5.278-.77 0-1.503.035-1.818.104-.209.07-.279.175-.279.42zM316.172 125.277c-.489-.21-.594-.35-.594-1.014 0-1.608.14-3.461.175-3.951 0-.454.14-.769.385-.769.279 0 .314.279.314.489 0 .385.104 1.014.279 1.538.664 2.202 2.972 2.937 4.895 2.937 2.656 0 4.265-1.678 4.265-3.775 0-1.293-.314-2.587-3.041-4.195l-1.783-1.049c-3.636-2.132-4.824-4.125-4.824-6.746 0-3.636 3.496-5.979 7.761-5.979 1.992 0 3.565.28 4.37.49.279.069.419.175.419.384 0 .385-.104 1.224-.104 3.566 0 .629-.14.943-.385.943q-.315 0-.314-.524c0-.279-.14-1.188-.804-1.957-.455-.56-1.434-1.398-3.427-1.398-2.202 0-4.194 1.153-4.194 3.181 0 1.329.489 2.377 3.251 3.915l1.259.699c4.055 2.237 5.313 4.51 5.313 7.202 0 2.202-.839 3.984-3.076 5.558-1.469 1.049-3.496 1.224-5.14 1.224-1.783 0-3.671-.175-5-.769M344.313 111.783c0-4.51 0-5.349-.035-6.292-.07-1.015-.385-1.363-1.049-1.573a4 4 0 0 0-1.118-.14c-.315 0-.49-.07-.49-.35 0-.175.245-.245.734-.245 1.153 0 3.251.07 4.125.07.77 0 2.762-.07 3.95-.07.385 0 .63.07.63.245 0 .279-.175.35-.49.35-.314 0-.559.034-.908.104-.839.14-1.084.56-1.154 1.608-.069.943-.069 1.782-.069 6.292v5.244c0 2.866 0 5.243.14 6.502.104.804.314 1.258 1.224 1.398.419.069 1.118.104 1.573.104.35 0 .489.175.489.314 0 .21-.245.314-.595.314-2.027 0-4.125-.104-4.964-.104-.699 0-2.797.104-4.02.104-.385 0-.595-.104-.595-.314 0-.14.104-.314.489-.314.455 0 .804-.035 1.084-.104.629-.141.804-.56.909-1.434.14-1.224.14-3.601.14-6.467zM370.915 105.001l-4.579.105c-1.783.035-2.518.244-2.972.909a3.5 3.5 0 0 0-.524 1.014c-.07.244-.14.384-.35.384s-.279-.175-.279-.489c0-.489.594-3.355.664-3.601.069-.385.175-.56.35-.56.244 0 .559.245 1.328.35.909.105 2.063.141 3.076.141h12.48c.979 0 1.643-.07 2.097-.141.49-.069.734-.14.839-.14.21 0 .245.175.245.63 0 .629-.07 2.831-.07 3.601-.034.314-.104.489-.279.489-.244 0-.314-.14-.35-.595l-.035-.314c-.069-.769-.874-1.678-3.636-1.713l-3.88-.07v12.026c0 2.727.035 5.068.175 6.362.104.839.279 1.397 1.188 1.538.42.069 1.119.104 1.573.104.35 0 .489.175.489.314 0 .21-.244.314-.594.314-2.028 0-4.091-.104-4.965-.104-.699 0-2.796.104-4.02.104-.385 0-.595-.104-.595-.314 0-.14.105-.314.489-.314.455 0 .839-.035 1.084-.104.629-.141.804-.699.909-1.573.14-1.259.14-3.601.14-6.327v-12.026zM400.733 117.936c0-1.607-.279-2.237-.698-3.111-.21-.454-4.405-6.991-5.489-8.564-.769-1.084-1.397-1.783-1.992-2.098-.385-.209-.909-.384-1.294-.384-.244 0-.454-.105-.454-.315 0-.209.21-.279.595-.279.524 0 2.831.07 3.845.07.664 0 2.098-.07 3.496-.07.279 0 .454.07.454.279 0 .245-.209.245-.699.385-.244.07-.419.21-.419.455 0 .244.14.594.385 1.014.559.908 4.579 7.865 5.104 8.704.385-.699 4.125-7.062 4.579-7.971.315-.664.455-1.188.455-1.573 0-.279-.14-.559-.664-.664-.28-.069-.56-.104-.56-.35 0-.209.175-.279.524-.279 1.014 0 2.098.07 3.006.07.664 0 2.692-.07 3.286-.07.35 0 .56.07.56.245 0 .209-.245.35-.595.35-.314 0-.873.14-1.328.35-.664.314-.943.594-1.607 1.397-1.015 1.188-5.419 8.25-5.979 9.509-.454 1.084-.385 1.993-.385 2.972v2.377c0 .489 0 1.713.07 2.972.07.874.35 1.433 1.259 1.573a12 12 0 0 0 1.538.104c.35 0 .524.175.524.314 0 .21-.245.314-.664.314-1.923 0-3.985-.104-4.824-.104-.77 0-2.832.104-3.985.104-.42 0-.664-.069-.664-.314 0-.14.14-.314.489-.314.419 0 .804-.035 1.084-.104.629-.141.873-.699.943-1.573.104-1.259.104-2.482.104-2.972zM133.488 152.982c0-4.51 0-5.349-.035-6.292-.07-1.015-.385-1.363-1.049-1.573a4 4 0 0 0-1.119-.14c-.314 0-.489-.07-.489-.35 0-.175.245-.245.734-.245 1.154 0 3.251.07 4.125.07.769 0 2.762-.07 3.95-.07.385 0 .629.07.629.245 0 .279-.175.35-.489.35-.315 0-.56.034-.909.104-.839.14-1.083.56-1.153 1.608-.07.943-.07 1.782-.07 6.292v5.244c0 2.866 0 5.243.14 6.502.105.804.314 1.258 1.224 1.398.419.069 1.119.104 1.573.104.35 0 .49.175.49.314 0 .21-.245.314-.594.314-2.028 0-4.125-.104-4.964-.104-.699 0-2.796.104-4.02.104-.384 0-.594-.104-.594-.314 0-.14.105-.314.489-.314.455 0 .804-.035 1.084-.104.629-.141.804-.56.909-1.434.14-1.224.14-3.601.14-6.467v-5.242zM159.356 162.806c.07 2.308.455 3.006 1.049 3.216.524.175 1.119.21 1.608.21.35 0 .524.14.524.314 0 .245-.28.314-.699.314-1.993 0-3.426-.104-3.985-.104-.28 0-1.748.104-3.321.104-.419 0-.699-.034-.699-.314 0-.175.21-.314.49-.314.419 0 .979-.035 1.398-.14.804-.21.909-1.014.944-3.601l.28-17.619c0-.594.21-1.014.524-1.014.385 0 .804.454 1.329.979.384.385 4.999 5.104 9.474 9.474 2.097 2.063 6.188 6.258 6.642 6.678h.14l-.315-13.215c-.035-1.817-.314-2.342-1.048-2.621-.455-.175-1.189-.175-1.608-.175-.384 0-.489-.141-.489-.315 0-.244.314-.279.769-.279 1.608 0 3.251.07 3.916.07.349 0 1.503-.07 3.006-.07.419 0 .699.035.699.279 0 .175-.175.315-.524.315-.315 0-.56 0-.944.104-.839.245-1.084.769-1.119 2.447l-.35 18.737c0 .664-.245.943-.49.943-.524 0-.944-.314-1.258-.629-1.923-1.783-5.768-5.453-8.984-8.564-3.356-3.217-6.607-6.817-7.201-7.342h-.105zM220.774 154.311h.141c1.048-1.118 5.522-5.523 6.432-6.537.874-.979 1.538-1.678 1.538-2.202 0-.314-.14-.524-.419-.594-.28-.07-.42-.141-.42-.315 0-.209.175-.279.489-.279.664 0 2.343.07 3.182.07.943 0 2.656-.07 3.601-.07.314 0 .524.07.524.279s-.175.315-.455.315c-.454 0-1.223.14-1.782.35-.979.349-1.958.979-3.251 2.202-.979.908-5.559 5.243-6.502 6.327 1.083 1.398 7.131 7.69 8.319 8.81 1.363 1.224 2.552 2.517 4.195 3.181.909.385 1.538.385 1.888.385.244 0 .419.14.419.314 0 .21-.175.314-.733.314h-2.692c-.908 0-1.468 0-2.132-.069-1.644-.14-2.657-.77-3.985-1.923s-7.236-8.006-7.9-8.914l-.314-.42h-.141v2.692c0 2.727 0 5.068.07 6.362.07.839.35 1.397 1.118 1.538.42.069 1.119.104 1.504.104.244 0 .419.175.419.314 0 .21-.244.314-.594.314-1.713 0-3.915-.104-4.685-.104-.699 0-2.657.104-3.88.104-.385 0-.595-.104-.595-.314 0-.14.104-.314.489-.314.454 0 .804-.035 1.084-.104.629-.141.804-.699.909-1.573.14-1.259.14-3.601.14-6.327v-5.244c0-4.51 0-5.349-.035-6.292-.07-1.015-.35-1.329-1.328-1.608-.245-.07-.77-.104-1.224-.104-.314 0-.524-.105-.524-.315 0-.209.244-.279.699-.279 1.607 0 3.565.07 4.3.07s2.937-.07 3.95-.07c.454 0 .664.07.664.279s-.175.315-.42.315c-.314 0-.489.034-.874.104-.839.14-1.083.56-1.153 1.608-.035.943-.035 1.782-.035 6.292zM250.419 152.982c0-4.51 0-5.349-.035-6.292-.07-1.015-.35-1.329-1.328-1.608-.245-.07-.77-.104-1.224-.104-.314 0-.524-.105-.524-.315 0-.209.244-.279.699-.279 1.607 0 3.565.07 4.194.07 1.049 0 3.846-.07 4.79-.07 1.957 0 4.194.175 5.838 1.259.874.594 2.167 2.097 2.167 4.09 0 2.202-1.259 4.16-4.265 6.572 2.727 3.355 4.894 6.048 6.747 7.9 1.713 1.713 2.796 1.853 3.286 1.957.314.07.489.07.733.07.245 0 .385.175.385.314 0 .245-.21.314-.595.314h-2.936c-1.714 0-2.553-.175-3.356-.594-1.328-.664-2.482-2.063-4.195-4.37-1.223-1.607-2.517-3.601-2.901-4.055-.175-.175-.35-.21-.559-.21l-2.762-.07c-.141 0-.245.07-.245.245v.42c0 2.762.035 5.068.175 6.327.104.874.245 1.433 1.188 1.573.454.069 1.119.104 1.503.104.245 0 .385.175.385.314 0 .21-.244.314-.629.314-1.783 0-4.335-.104-4.789-.104-.595 0-2.553.104-3.775.104-.385 0-.595-.104-.595-.314 0-.14.104-.314.489-.314.454 0 .804-.035 1.084-.104.629-.141.804-.699.909-1.573.14-1.259.14-3.601.14-6.327v-5.244zm3.915 2.308c0 .314.07.419.279.524.665.209 1.573.279 2.343.279 1.224 0 1.643-.104 2.167-.489.944-.664 1.993-1.958 1.993-4.405 0-4.194-2.867-5.278-4.685-5.278-.77 0-1.503.035-1.818.104-.209.07-.279.175-.279.42zM285.444 159.345c-.175 0-.21.035-.279.21l-1.644 4.02c-.314.734-.454 1.469-.454 1.818 0 .524.279.839 1.224.839h.454c.385 0 .454.14.454.314 0 .245-.175.314-.489.314-1.014 0-2.446-.104-3.426-.104-.314 0-1.957.104-3.565.104-.385 0-.56-.069-.56-.314 0-.175.105-.314.35-.314.28 0 .629-.035.909-.035 1.398-.21 1.923-1.118 2.552-2.622l8.04-18.563c.35-.839.595-1.188.909-1.188.454 0 .595.28.909.944.733 1.643 5.873 13.668 7.83 18.178 1.188 2.691 2.063 3.076 2.622 3.182.454.069.804.104 1.153.104q.42 0 .42.314c0 .245-.175.314-1.328.314-1.084 0-3.321 0-5.908-.069-.56-.035-.909-.035-.909-.245 0-.175.07-.279.385-.314.21-.035.42-.314.279-.664l-2.377-6.013c-.069-.175-.175-.21-.314-.21zm6.573-1.643c.14 0 .175-.07.14-.175l-2.901-7.446c-.035-.104-.07-.279-.14-.279-.105 0-.14.175-.175.279l-2.972 7.411c-.07.14 0 .21.104.21zM319.947 154.311h.141c1.048-1.118 5.522-5.523 6.432-6.537.874-.979 1.538-1.678 1.538-2.202 0-.314-.14-.524-.419-.594-.28-.07-.42-.141-.42-.315 0-.209.175-.279.489-.279.664 0 2.343.07 3.182.07.943 0 2.656-.07 3.601-.07.314 0 .524.07.524.279s-.175.315-.455.315c-.454 0-1.223.14-1.782.35-.979.349-1.958.979-3.251 2.202-.979.908-5.559 5.243-6.502 6.327 1.083 1.398 7.131 7.69 8.319 8.81 1.363 1.224 2.552 2.517 4.195 3.181.909.385 1.538.385 1.888.385.244 0 .419.14.419.314 0 .21-.175.314-.733.314h-2.692c-.908 0-1.468 0-2.132-.069-1.644-.14-2.657-.77-3.985-1.923s-7.236-8.006-7.9-8.914l-.314-.42h-.141v2.692c0 2.727 0 5.068.07 6.362.07.839.35 1.397 1.118 1.538.42.069 1.119.104 1.504.104.244 0 .419.175.419.314 0 .21-.244.314-.594.314-1.713 0-3.915-.104-4.685-.104-.699 0-2.657.104-3.88.104-.385 0-.595-.104-.595-.314 0-.14.104-.314.489-.314.455 0 .804-.035 1.084-.104.629-.141.804-.699.909-1.573.14-1.259.14-3.601.14-6.327v-5.244c0-4.51 0-5.349-.035-6.292-.07-1.015-.35-1.329-1.328-1.608-.245-.07-.77-.104-1.224-.104-.314 0-.524-.105-.524-.315 0-.209.244-.279.699-.279 1.607 0 3.565.07 4.3.07s2.937-.07 3.95-.07c.454 0 .664.07.664.279s-.175.315-.42.315c-.314 0-.489.034-.874.104-.839.14-1.083.56-1.153 1.608-.035.943-.035 1.782-.035 6.292zM346.514 155.604c0-5.069 3.566-11.642 12.899-11.642 7.761 0 12.585 4.3 12.585 11.117 0 6.816-4.964 12.165-12.899 12.165-8.95.001-12.585-6.361-12.585-11.64m20.905.56c0-6.572-3.95-10.628-8.914-10.628-3.427 0-7.446 1.818-7.446 9.159 0 6.118 3.496 10.941 9.299 10.941 2.166.001 7.061-1.013 7.061-9.472m-2.343-17.375c.21.42 0 .524-.175.524s-.489-.069-1.188 0c-1.923.245-4.684 1.364-5.978 2.063-.279.141-.524.28-.595.28-.069 0-.209-.07-.209-.21s.14-.279.314-.454c1.398-1.329 5.068-4.056 5.628-4.405.35-.244.595-.314.699-.314.245 0 .314.105.489.42.282.489.596 1.153 1.015 2.096M385.665 147.284c-.385-1.084-.629-1.782-1.083-2.063-.315-.21-.909-.244-1.189-.244-.314 0-.489-.105-.489-.315 0-.209.245-.279.699-.279 1.573 0 3.286.07 3.565.07.28 0 1.783-.07 3.566-.07.454 0 .664.07.664.279s-.245.315-.56.315c-.244 0-.524.034-.769.14-.28.104-.315.279-.315.594 0 .385.28 1.363.665 2.727.524 1.958 3.32 10.942 3.775 12.306h.104l5.873-15.207c.314-.839.629-1.083.909-1.083.35 0 .629.454 1.014 1.397l6.152 14.683h.104c.595-1.713 2.937-9.543 4.021-13.004.21-.699.314-1.294.314-1.713 0-.489-.279-.839-1.503-.839-.279 0-.524-.141-.524-.315 0-.209.245-.279.734-.279 1.607 0 3.006.07 3.286.07.209 0 1.538-.07 2.552-.07.35 0 .56.07.56.245 0 .209-.141.35-.42.35-.314 0-.734.034-1.084.14-.733.279-1.083 1.398-1.713 3.111-1.433 3.74-4.579 13.179-6.082 17.618-.35 1.049-.524 1.398-.979 1.398-.419 0-.629-.35-1.083-1.434l-6.258-14.682h-.07c-.524 1.258-4.649 11.815-5.907 14.542-.56 1.224-.734 1.573-1.188 1.573-.385 0-.56-.314-.84-1.084z"/></g></svg>