<svg xmlns="http://www.w3.org/2000/svg" xml:space="preserve" viewBox="0 0 144 60"><path fill="#4d6fb7" d="M22.5 3v19.5H18V24h6V3Zm24 0v1.5h-6V18H42V6h6V3Zm9 0v3H57V3Zm15 0v4.5h-3v3h-3V12H69V9h3V3Zm72 0v19.5H138V24h6V3ZM30 4.5V6h3V4.5zm52.5 0v3h-3V15H81V9h3V6h3V4.5zm21 0V18h1.5V6h6V4.5zm-9 1.5v1.5H90V9h6V6zm24 0v13.5h-3v3H102V24h15v-3h3V6Zm-111 4.5v12H3V24h6V10.5Zm120 0v12H123V24h6V10.5Zm-69 3v3h-3v6H51V24h6v-6h3v-4.5zm12 4.5v4.5H66V24h6v-6zm24 0v1.5h-3v3H81V24h12v-3h3v-3zm-48 3v1.5H30V24h18v-3zm45 18v1.5h-9v3h-3V45H84v-3h9v-3zm-84 1.5v3H3V45h6v-3h6v-1.5zm25.5 0V42h3v-1.5zm0 1.5h-1.5v9H33zm22.5-1.5v3H51V45h6v-3h6v-1.5zm-33 1.5v4.5h-3v3h-3v3h-6V54H18v-3h3v-3h3v-6zm48 0v4.5h-3v3h-3v3h-6V54H66v-3h3v-3h3v-6zm-24 3v7.5h-3v3H42V57h3v-3h3v-9zM42 57h-1.5v1.5H33V60h9zm37.5-7.5V54H81v-3h6v-1.5zm15 1.5v4.5h-3v3H78V60h15v-3h3v-6zm-72 6v1.5H3V60h21v-3zm48 0v1.5H51V60h21v-3z"/><path fill="#fff" d="M0 0v21h6V9h3v3h3v3h3v6h6V0h-6v9h-3V6H9V3H6V0Zm27 0v3h6v15h-6v3h18v-3h-6V3h6V0Zm21 0v6h3v3h3v3h-3v3h-3v6h6v-6h3v-3h3v3h3v6h6v-6h-3v-3h-3V9h3V6h3V0h-6v6h-3v3h-3V6h-3V0Zm30 0v3h-3v3h-3v9h3v3h3v3h12v-3h3v-3h-6v3h-6v-3h-3V6h3V3h6v3h6V3h-3V0Zm21 0v3h-3v15h3v3h15v-3h3V3h-3V0Zm21 0v21h6V9h3v3h3v3h3v6h6V0h-6v9h-3V6h-3V3h-3V0Zm-18 3h9v15h-9zM3 36v3H0v3h6v-3h9v3h-3v3H6v3H3v3H0v6h21v-3H9v-3h6v-3h3v-3h3v-6h-3v-3zm27 0v3h6v3h3v12h3v-3h3v-9h-3v-3h-3v-3zm9 18h-6v-3h-3V39h-3v3h-3v9h3v3h3v3h9zm12-18v3h-3v3h6v-3h9v3h-3v3h-6v3h-3v3h-3v6h21v-3H57v-3h6v-3h3v-3h3v-6h-3v-3zm27 0v3h-3v3h-3v12h3v3h15v-3h3v-6h-3v-3H78v-3h3v-3h9v-3zm0 12h9v6h-9z"/></svg>